<svg xmlns="http://www.w3.org/2000/svg" viewBox="0 0 48 48"><defs><style>.cls-1{fill:#201602}</style></defs><g id="Layer_2" data-name="Layer 2"><g id="layer_1-2" data-name="layer 1"><path class="cls-1" d="M11 40a11 11 0 1 1 11-11 11 11 0 0 1-11 11zm0-20a9 9 0 1 0 9 9 9 9 0 0 0-9-9z"/><path class="cls-1" d="M11 32c-2.21 0-4-2.24-4-5a3.71 3.71 0 0 1 4-4 3.71 3.71 0 0 1 4 4c0 2.76-1.79 5-4 5zm0-7c-1.79 0-2 1.14-2 2 0 1.6.93 3 2 3s2-1.4 2-3c0-.86-.21-2-2-2z"/><path class="cls-1" d="M18 37h-2v-3.31a1 1 0 0 0-.84-1L11 32l-4.16.7a1 1 0 0 0-.84 1V37H4v-3.31a3 3 0 0 1 2.51-2.95l4.33-.74a1.71 1.71 0 0 1 .32 0l4.33.73A3 3 0 0 1 18 33.69zM37 48a11 11 0 1 1 11-11 11 11 0 0 1-11 11zm0-20a9 9 0 1 0 9 9 9 9 0 0 0-9-9z"/><path class="cls-1" d="M37 40c-2.21 0-4-2.24-4-5a3.71 3.71 0 0 1 4-4 3.71 3.71 0 0 1 4 4c0 2.76-1.79 5-4 5zm0-7c-1.79 0-2 1.14-2 2 0 1.6.93 3 2 3s2-1.4 2-3c0-.86-.21-2-2-2z"/><path class="cls-1" d="M44 45h-2v-3.31a1 1 0 0 0-.84-1L37 40l-4.16.7a1 1 0 0 0-.84 1V45h-2v-3.31a3 3 0 0 1 2.51-2.95l4.33-.74h.32l4.33.73A3 3 0 0 1 44 41.69zM32 22a11 11 0 1 1 11-11 11 11 0 0 1-11 11zm0-20a9 9 0 1 0 9 9 9 9 0 0 0-9-9z"/><path class="cls-1" d="M32 14c-2.21 0-4-2.24-4-5a3.71 3.71 0 0 1 4-4 3.71 3.71 0 0 1 4 4c0 2.76-1.79 5-4 5zm0-7c-1.79 0-2 1.14-2 2 0 1.6.93 3 2 3s2-1.4 2-3c0-.86-.21-2-2-2z"/><path class="cls-1" d="M39 19h-2v-3.31a1 1 0 0 0-.84-1L32 14l-4.16.7a1 1 0 0 0-.84 1V19h-2v-3.31a3 3 0 0 1 2.51-2.95l4.33-.74h.32l4.33.73A3 3 0 0 1 39 15.69z"/><path class="cls-1" transform="rotate(-72.89 24 33)" d="M23 29.4h2v7.2h-2z"/><path class="cls-1" transform="rotate(-40.6 21.505 20.002)" d="M17.67 19h7.66v2h-7.66z"/></g></g></svg>